<svg xmlns="http://www.w3.org/2000/svg" width="31.001" height="31.001" viewBox="0 0 31.001 31.001"><defs><style>.a,.b{fill:#b7b7b7;}.a{stroke:#b6b7b7;stroke-miterlimit:10;}.c{fill:none;}</style></defs><g transform="translate(0.5 0.5)"><path class="a" d="M0,15C0,5.188,5.186,0,15,0c4.786,0,8.5,1.24,11.037,3.686C28.666,6.223,30,10.031,30,15c0,9.811-5.188,15-15,15S0,24.815,0,15ZM4.556,4.3C2.1,6.669.854,10.271.854,15s1.246,8.333,3.7,10.7c2.37,2.284,5.882,3.443,10.441,3.443s8.072-1.158,10.444-3.443c2.459-2.368,3.705-5.968,3.705-10.7S27.9,6.67,25.44,4.3C23.068,2.013,19.554.854,15,.854S6.926,2.013,4.556,4.3Z"/><g transform="translate(3 3)"><path class="b" d="M19,6.41,17.59,5,12,10.59,6.41,5,5,6.41,10.59,12,5,17.59,6.41,19,12,13.41,17.59,19,19,17.59,13.41,12Z"/><path class="c" d="M0,0H24V24H0Z"/></g></g></svg>